<?xml version="1.0"?>
<svg width="720.0000000000001" height="450" xmlns="http://www.w3.org/2000/svg">

 <g>
  <title>background</title>
  <rect fill="none" id="canvas_background" height="452" width="722" y="-1" x="-1"/>
 </g>
 <g>
  <title>Layer 1</title>
  <rect stroke="null" id="svg_3" height="55.000002" width="623.000005" y="-16.5" x="-65.5" fill-opacity="null" stroke-opacity="null" stroke-width="null" fill="#000000"/>
  <rect id="svg_4" height="39" width="131" y="-0.5" x="528.5" stroke-opacity="null" stroke-width="null" stroke="null" fill="#666666"/>
  <rect id="svg_5" height="39" width="81" y="0" x="658.5" stroke-opacity="null" stroke-width="null" stroke="null" fill="#DDDDDD"/>
  <path id="svg_1" d="m36.200996,29.039001c16.814995,0 28.978004,-4.080994 28.978004,-10.447998c0,-6.285004 -12.162003,-10.36599 -28.978004,-10.36599l0,-1.225014c17.46801,0 30.120003,4.570999 30.120003,11.591003c0,7.102005 -12.651993,11.673004 -30.120003,11.673004l0,-1.225006l0,0zm0,-20.813988c-16.814995,0 -28.976997,4.080986 -28.976997,10.36599c0,6.367004 12.162003,10.447998 28.976997,10.447998l0,1.225006c-17.467995,0 -30.200996,-4.572006 -30.200996,-11.673004c0,-7.020004 12.733002,-11.591003 30.200996,-11.591003l0,1.225014l0,0zm-20.078995,7.998985l0,-1.713989c0,-0.327011 -0.245003,-0.653 -0.653,-0.490021c-0.327003,0.16301 -1.306,0.490021 -1.877998,0.81601l0,1.387009l-1.714005,0l0,-2.367004c1.142998,-0.733994 2.938004,-1.468994 3.755005,-1.71299c0.897995,-0.326012 2.203995,0.162987 2.203995,1.550987l0,2.529999l-1.713997,0l0,0zm1.712997,0l0,7.347c0,1.143005 -0.978996,1.959 -1.876999,1.632004c-0.979004,-0.326004 -3.019997,-1.061005 -4.081001,-1.795013l0,-7.18399l1.714005,0l0,6.285004c0.571999,0.164001 1.224998,0.490005 1.713997,0.735001c0.653,0.163986 0.816002,-0.082001 0.816002,-0.490005l0,-6.529999l1.713997,0l0,0zm8.163002,-6.285995l0,14.938004c0,2.285004 -1.551003,2.285004 -3.183998,2.040985c-1.632004,-0.326996 -3.102005,-0.48999 -3.102005,-2.530991l0,-13.304001l1.633003,-0.40799l0,13.549988c0,0.735001 0.734001,0.81601 1.469002,0.979004c0.735001,0.082001 1.469994,0.244995 1.469994,-0.653l0,-14.36599l1.714005,-0.24601l0,0zm22.201996,17.061005c-0.653,0.16301 -0.978989,0.16301 -1.713989,0.327011l0,-17.30603c0.735001,0.082024 1.14299,0.082024 1.79599,0.24501l2.85701,10.529999l0,-10.122009c0.733994,0.16301 1.060989,0.24501 1.713989,0.40802l0,15.181992c-0.653,0.164001 -1.143005,0.164001 -1.794998,0.326996l-2.858002,-10.039993l0,10.449005l0,0zm10.447998,-2.613007c-0.570999,0.244995 -0.978989,0.408005 -1.632004,0.653l0,-11.019012c-0.815994,-0.326981 -1.631989,-0.570999 -2.366989,-0.734985l0,-1.714005c3.020004,0.733994 4.570999,1.55101 6.285004,2.612l0,2.041c-0.570999,-0.488998 -1.388,-0.978996 -2.286011,-1.387009l0,9.549011l0,0zm-28.486992,-8.162003l0,-6.529999c1.142998,-0.16301 2.937996,-0.24501 4.570999,-0.24501c0.815994,0 1.876999,0.40802 1.876999,1.877007l0,4.897011l-1.794998,0l0,-4.652008c0,-0.326996 -0.164001,-0.40799 -0.327003,-0.40799c-0.164001,0 -2.448997,0.081993 -2.612,0.081993l0,4.978996l-1.713997,0l0,0zm6.447998,0l0,4.16301c0,1.713989 -1.469002,2.121994 -2.529999,2.121994l-2.204002,0l0,5.223999c-0.327003,0 -1.306,-0.082001 -1.713997,-0.082001l0,-11.427002l1.713997,0l0,4.570999l2.286003,0c0.407997,0 0.653,-0.082001 0.653,-0.735001l0,-3.835999l1.794998,0l0,0zm8.081001,0l-1.714005,0l0,-4.080986c0,-0.81601 -0.735001,-0.89801 -1.468994,-0.89801c-0.653008,-0.081993 -1.469017,0 -1.469017,0.89801l0,4.080986l-1.713974,0l0,-4.570999c0,-1.959 1.550987,-2.20401 3.183983,-2.122009c1.632004,0.082001 3.183014,0.40802 3.183014,2.36702l0,4.325989l-0.001007,0zm0,0l0,9.061005c0,2.041016 -1.550995,2.367004 -3.182999,2.447998c-1.633011,0.082001 -3.18399,-0.162994 -3.18399,-2.122009l0,-9.386993l1.713989,0l0,8.897003c0,0.897995 0.815994,0.979004 1.468994,0.979004c0.734009,-0.082001 1.469009,-0.162994 1.469009,-0.979004l0,-8.897003l1.714996,0l0,0z" fill="#ffffff" clip-rule="evenodd" fill-rule="evenodd"/>
  <path id="svg_2" d="m61.423996,27.977997c0,-0.89798 0.734009,-1.632996 1.714005,-1.632996c0.897003,0 1.632004,0.735016 1.632004,1.632996c0,0.979004 -0.735001,1.71402 -1.632004,1.71402c-0.979996,0 -1.714005,-0.734009 -1.714005,-1.71402l0,0zm3.100998,0c0,-0.734009 -0.652985,-1.388 -1.386993,-1.388c-0.81601,0 -1.388,0.653015 -1.388,1.388c0,0.734985 0.571991,1.388 1.388,1.388c0.735001,0 1.386993,-0.653015 1.386993,-1.388l0,0zm-1.794998,0.082001l0,0.89801l-0.244995,0l0,-1.959l0.572006,0c0.40799,0 0.733994,0.081985 0.733994,0.489975c0,0.245026 -0.082001,0.40802 -0.408005,0.490021l0,0c0.326996,0.082001 0.35701,0.154999 0.408005,0.40799c0.031998,0.160004 0.054001,0.380005 0.082001,0.571014l-0.408005,0c-0.013,-0.165009 -0.020996,-0.345001 -0.037994,-0.494995c-0.042007,-0.351013 -0.143997,-0.351013 -0.451996,-0.403015l-0.24501,0l0,0zm0.327011,-0.246002c0.325989,0 0.40799,-0.162994 0.40799,-0.325989s-0.082001,-0.244995 -0.326996,-0.244995l-0.408005,0l0,0.570984l0.327011,0l0,0z" fill="#ffffff" clip-rule="evenodd" fill-rule="evenodd"/>
 </g>
</svg>