<?xml version="1.0" encoding="utf-8"?>
<!-- Generator: Adobe Illustrator 13.0.2, SVG Export Plug-In  -->
<!DOCTYPE svg PUBLIC "-//W3C//DTD SVG 1.1//EN" "http://www.w3.org/Graphics/SVG/1.1/DTD/svg11.dtd" [
	<!ENTITY ns_flows "http://ns.adobe.com/Flows/1.0/">
]>
<svg version="1.1"
	 xmlns="http://www.w3.org/2000/svg" xmlns:xlink="http://www.w3.org/1999/xlink" xmlns:a="http://ns.adobe.com/AdobeSVGViewerExtensions/3.0/"
	 x="0px" y="0px" width="62px" height="24px" viewBox="-0.835 -0.649 62 24" enable-background="new -0.835 -0.649 62 24"
	 xml:space="preserve">
<defs>
</defs>
<path fill-rule="evenodd" clip-rule="evenodd" fill="#000000" d="M30.201,22.039c16.815,0,28.978-4.081,28.978-10.448
	c0-6.285-12.162-10.366-28.978-10.366V0c17.468,0,30.12,4.571,30.12,11.591c0,7.102-12.652,11.673-30.12,11.673V22.039
	L30.201,22.039z M30.201,1.225c-16.815,0-28.977,4.081-28.977,10.366c0,6.367,12.162,10.448,28.977,10.448v1.225
	C12.733,23.264,0,18.692,0,11.591C0,4.571,12.733,0,30.201,0V1.225L30.201,1.225z M10.122,9.224V7.51
	c0-0.327-0.245-0.653-0.653-0.49C9.142,7.183,8.163,7.51,7.591,7.836v1.387H5.877V6.856C7.02,6.122,8.815,5.387,9.632,5.143
	c0.898-0.326,2.204,0.163,2.204,1.551v2.53H10.122L10.122,9.224z M11.835,9.224v7.347c0,1.143-0.979,1.959-1.877,1.632
	c-0.979-0.326-3.02-1.061-4.081-1.795V9.224h1.714v6.285c0.572,0.164,1.225,0.49,1.714,0.735c0.653,0.164,0.816-0.082,0.816-0.49
	v-6.53H11.835L11.835,9.224z M19.998,2.938v14.938c0,2.285-1.551,2.285-3.184,2.041c-1.632-0.327-3.102-0.49-3.102-2.531V4.082
	l1.633-0.408v13.55c0,0.735,0.734,0.816,1.469,0.979c0.735,0.082,1.47,0.245,1.47-0.653V3.184L19.998,2.938L19.998,2.938z
	 M42.2,19.999c-0.653,0.163-0.979,0.163-1.714,0.327V3.02c0.735,0.082,1.143,0.082,1.796,0.245l2.857,10.53V3.673
	c0.734,0.163,1.061,0.245,1.714,0.408v15.182c-0.653,0.164-1.143,0.164-1.795,0.327L42.2,9.55V19.999L42.2,19.999z M52.648,17.386
	c-0.571,0.245-0.979,0.408-1.632,0.653V7.02c-0.816-0.327-1.632-0.571-2.367-0.735V4.571c3.02,0.734,4.571,1.551,6.285,2.612v2.041
	c-0.571-0.489-1.388-0.979-2.286-1.387V17.386L52.648,17.386z M24.161,9.224v-6.53c1.143-0.163,2.938-0.245,4.571-0.245
	c0.816,0,1.877,0.408,1.877,1.877v4.897h-1.795V4.571c0-0.327-0.164-0.408-0.327-0.408c-0.164,0-2.449,0.082-2.612,0.082v4.979
	H24.161L24.161,9.224z M30.609,9.224v4.163c0,1.714-1.469,2.122-2.53,2.122h-2.204v5.224c-0.327,0-1.306-0.082-1.714-0.082V9.224
	h1.714v4.571h2.286c0.408,0,0.653-0.082,0.653-0.735V9.224H30.609L30.609,9.224z M38.69,9.224h-1.714V5.143
	c0-0.816-0.735-0.898-1.469-0.898c-0.653-0.082-1.469,0-1.469,0.898v4.081h-1.714V4.653c0-1.959,1.551-2.204,3.184-2.122
	c1.632,0.082,3.183,0.408,3.183,2.367V9.224L38.69,9.224z M38.69,9.224v9.061c0,2.041-1.551,2.367-3.183,2.448
	c-1.633,0.082-3.184-0.163-3.184-2.122V9.224h1.714v8.897c0,0.898,0.816,0.979,1.469,0.979c0.734-0.082,1.469-0.163,1.469-0.979
	V9.224H38.69L38.69,9.224z"/>
<path fill-rule="evenodd" clip-rule="evenodd" fill="#000000" d="M55.424,20.978c0-0.898,0.734-1.633,1.714-1.633
	c0.897,0,1.632,0.735,1.632,1.633c0,0.979-0.735,1.714-1.632,1.714C56.158,22.692,55.424,21.958,55.424,20.978L55.424,20.978z
	 M58.525,20.978c0-0.734-0.653-1.388-1.387-1.388c-0.816,0-1.388,0.653-1.388,1.388c0,0.735,0.572,1.388,1.388,1.388
	C57.873,22.366,58.525,21.713,58.525,20.978L58.525,20.978z M56.73,21.06v0.898h-0.245v-1.959h0.572c0.408,0,0.734,0.082,0.734,0.49
	c0,0.245-0.082,0.408-0.408,0.49l0,0c0.327,0.082,0.357,0.155,0.408,0.408c0.032,0.16,0.054,0.38,0.082,0.571h-0.408
	c-0.013-0.165-0.021-0.345-0.038-0.495c-0.042-0.351-0.144-0.351-0.452-0.403H56.73L56.73,21.06z M57.057,20.814
	c0.326,0,0.408-0.163,0.408-0.326s-0.082-0.245-0.327-0.245H56.73v0.571H57.057L57.057,20.814z"/>
</svg>
